<svg width="48" height="48" viewBox="0 0 48 48" fill="none" xmlns="http://www.w3.org/2000/svg">
<rect x="48" y="48" width="48" height="48" rx="24" transform="rotate(-180 48 48)" fill="#E1FF51"/>
<path d="M30.7071 24.7071C31.0976 24.3166 31.0976 23.6834 30.7071 23.2929L24.3431 16.9289C23.9526 16.5384 23.3195 16.5384 22.9289 16.9289C22.5384 17.3195 22.5384 17.9526 22.9289 18.3432L28.5858 24L22.9289 29.6569C22.5384 30.0474 22.5384 30.6805 22.9289 31.0711C23.3195 31.4616 23.9526 31.4616 24.3431 31.0711L30.7071 24.7071ZM17 24L17 25L30 25L30 24L30 23L17 23L17 24Z" fill="black"/>
</svg>
