<svg width="29" height="38" viewBox="0 0 29 38" fill="none" xmlns="http://www.w3.org/2000/svg">
<path d="M3 1.5C3 0.671572 2.32843 -1.10028e-06 1.5 -1.1365e-06C0.671576 -1.17271e-06 1.94356e-06 0.671572 1.90735e-06 1.5L1.5 1.5L3 1.5ZM1.5 26.5L8.14564e-07 26.5L7.48997e-07 28L1.5 28L1.5 26.5ZM28.5607 27.5607C29.1464 26.9749 29.1464 26.0251 28.5607 25.4393L19.0147 15.8934C18.4289 15.3076 17.4792 15.3076 16.8934 15.8934C16.3076 16.4792 16.3076 17.4289 16.8934 18.0147L25.3787 26.5L16.8934 34.9853C16.3076 35.5711 16.3076 36.5208 16.8934 37.1066C17.4792 37.6924 18.4289 37.6924 19.0147 37.1066L28.5607 27.5607ZM1.5 1.5L1.90735e-06 1.5L8.14564e-07 26.5L1.5 26.5L3 26.5L3 1.5L1.5 1.5ZM1.5 26.5L1.5 28L27.5 28L27.5 26.5L27.5 25L1.5 25L1.5 26.5Z" fill="black"/>
</svg>
