<svg width="20" height="20" viewBox="0 0 20 20" fill="none" xmlns="http://www.w3.org/2000/svg">
<rect width="20" height="20" rx="10" fill="#FC559B"/>
<path fill-rule="evenodd" clip-rule="evenodd" d="M6.5 7.125C6.13533 7.125 5.78559 7.26987 5.52773 7.52773C5.26987 7.78559 5.125 8.13533 5.125 8.5V13C5.125 13.3647 5.26987 13.7144 5.52773 13.9723C5.78559 14.2301 6.13533 14.375 6.5 14.375H13.5C13.8647 14.375 14.2144 14.2301 14.4723 13.9723C14.7301 13.7144 14.875 13.3647 14.875 13V8.5C14.875 8.13533 14.7301 7.78559 14.4723 7.52773C14.2144 7.26987 13.8647 7.125 13.5 7.125H6.5ZM12.25 10.125C12.0842 10.125 11.9253 10.1908 11.8081 10.3081C11.6908 10.4253 11.625 10.5842 11.625 10.75C11.625 10.9158 11.6908 11.0747 11.8081 11.1919C11.9253 11.3092 12.0842 11.375 12.25 11.375C12.4158 11.375 12.5747 11.3092 12.6919 11.1919C12.8092 11.0747 12.875 10.9158 12.875 10.75C12.875 10.5842 12.8092 10.4253 12.6919 10.3081C12.5747 10.1908 12.4158 10.125 12.25 10.125Z" fill="white"/>
<path d="M12.2425 5.5345C12.3905 5.49505 12.5457 5.49014 12.6959 5.52016C12.8461 5.55017 12.9875 5.6143 13.109 5.7076C13.2305 5.80091 13.329 5.92088 13.3968 6.05827C13.4646 6.19566 13.4999 6.34679 13.5 6.5H8.5L12.2425 5.5345Z" fill="white"/>
</svg>
