<svg width="20" height="20" viewBox="0 0 20 20" fill="none" xmlns="http://www.w3.org/2000/svg">
<rect width="20" height="20" rx="10" fill="#FC559B"/>
<path d="M8.68996 5.28396C8.60672 5.2216 8.50592 5.18711 8.40193 5.18541C8.29794 5.18372 8.19606 5.2149 8.11084 5.27451C8.02561 5.33412 7.96138 5.41911 7.9273 5.51738C7.89323 5.61564 7.89104 5.72216 7.92107 5.82173C8.00739 6.10973 8.01709 6.41526 7.94922 6.70815C7.88157 6.99931 7.73851 7.26755 7.5344 7.48593C7.5208 7.50062 7.5081 7.51612 7.49638 7.53235C7.20206 7.93581 5.54082 10.2978 7.03169 12.8469L7.0465 12.8711C7.40865 13.4158 7.90468 13.8582 8.48699 14.1561C9.06229 14.4506 9.70391 14.5916 10.3497 14.5654C11.0364 14.5775 11.7145 14.4116 12.3181 14.084C12.9322 13.75 13.4494 13.2627 13.8193 12.6696C14.4618 11.5832 14.404 10.4198 14.1097 9.48889C13.8218 8.5763 13.2801 7.80297 12.8223 7.46322C12.7504 7.40996 12.6653 7.37725 12.5763 7.36858C12.4872 7.35991 12.3974 7.37561 12.3166 7.41401C12.2357 7.4524 12.1669 7.51204 12.1173 7.58655C12.0677 7.66106 12.0393 7.74764 12.0351 7.83704C12.0021 8.54371 11.8559 9.0968 11.643 9.53136C11.5334 8.34272 11.0865 7.45926 10.5448 6.80346C9.97835 6.11704 9.2786 5.66766 8.90378 5.42667C8.83133 5.38149 8.76019 5.33423 8.69045 5.28494L8.68996 5.28396Z" fill="white"/>
</svg>
