<svg width="22" height="22" viewBox="0 0 22 22" fill="none" xmlns="http://www.w3.org/2000/svg">
<rect width="22" height="22" rx="11" fill="#E1FF51"/>
<path fill-rule="evenodd" clip-rule="evenodd" d="M16.6706 6.76843C16.8229 6.9208 16.9085 7.12742 16.9085 7.34287C16.9085 7.55832 16.8229 7.76494 16.6706 7.91731L10.5806 14.0073C10.5002 14.0878 10.4046 14.1516 10.2995 14.1952C10.1943 14.2388 10.0816 14.2612 9.96775 14.2612C9.85392 14.2612 9.7412 14.2388 9.63604 14.1952C9.53088 14.1516 9.43533 14.0878 9.35485 14.0073L6.3291 10.9821C6.2515 10.9071 6.1896 10.8175 6.14702 10.7183C6.10444 10.6192 6.08202 10.5126 6.08109 10.4047C6.08015 10.2968 6.10071 10.1898 6.14156 10.09C6.18241 9.99012 6.24274 9.8994 6.31903 9.82311C6.39532 9.74682 6.48604 9.68649 6.58589 9.64564C6.68574 9.60479 6.79273 9.58423 6.90061 9.58517C7.0085 9.5861 7.11511 9.60852 7.21424 9.6511C7.31337 9.69368 7.40303 9.75558 7.47798 9.83318L9.96748 12.3227L15.5212 6.76843C15.5966 6.69293 15.6862 6.63304 15.7848 6.59217C15.8835 6.55131 15.9892 6.53027 16.0959 6.53027C16.2026 6.53027 16.3083 6.55131 16.4069 6.59217C16.5056 6.63304 16.5951 6.69293 16.6706 6.76843Z" fill="black"/>
</svg>
