<svg width="69" height="69" viewBox="0 0 69 69" fill="none" xmlns="http://www.w3.org/2000/svg">
<rect width="69" height="69" rx="34.5" fill="#DAFE28"/>
<path fill-rule="evenodd" clip-rule="evenodd" d="M46.7205 36.6426V44.2075C46.7205 45.4113 46.2423 46.5658 45.391 47.417C44.5398 48.2682 43.3853 48.7464 42.1816 48.7464H36.1297V36.6426H46.7205ZM33.1037 36.6426V48.7464H27.0519C25.8481 48.7464 24.6936 48.2682 23.8424 47.417C22.9912 46.5658 22.513 45.4113 22.513 44.2075V36.6426H33.1037ZM30.0778 20C30.9364 20 31.7852 20.1826 32.5677 20.5358C33.3503 20.889 34.0488 21.4047 34.6167 22.0486C35.1847 21.4047 35.8831 20.889 36.6657 20.5358C37.4483 20.1826 38.297 20 39.1556 20H39.9121C40.514 20 41.0912 20.2391 41.5168 20.6647C41.9425 21.0903 42.1816 21.6676 42.1816 22.2695V23.0259C42.1816 24.1289 41.8865 25.1622 41.3721 26.0519H45.2075C46.01 26.0519 46.7797 26.3707 47.3472 26.9381C47.9146 27.5056 48.2334 28.2753 48.2334 29.0778V32.1037C48.2334 32.6545 48.0867 33.1719 47.828 33.6167H36.1297V29.0778C36.1297 28.6765 35.9703 28.2917 35.6865 28.008C35.4028 27.7242 35.018 27.5648 34.6167 27.5648C34.2154 27.5648 33.8306 27.7242 33.5469 28.008C33.2631 28.2917 33.1037 28.6765 33.1037 29.0778V33.6167H21.4055C21.1399 33.1567 21 32.6349 21 32.1037V29.0778C21 28.2753 21.3188 27.5056 21.8863 26.9381C22.4537 26.3707 23.2234 26.0519 24.0259 26.0519H27.8613C27.3306 25.1317 27.0515 24.0881 27.0519 23.0259V22.2695C27.0519 21.6676 27.291 21.0903 27.7166 20.6647C28.1422 20.2391 28.7194 20 29.3213 20H30.0778ZM30.0778 23.0259C30.0778 23.8285 30.3966 24.5981 30.9641 25.1656C31.5316 25.7331 32.3012 26.0519 33.1037 26.0519C33.1037 25.2493 32.7849 24.4797 32.2175 23.9122C31.65 23.3447 30.8803 23.0259 30.0778 23.0259ZM39.1556 23.0259C38.3531 23.0259 37.5834 23.3447 37.016 23.9122C36.4485 24.4797 36.1297 25.2493 36.1297 26.0519C36.9322 26.0519 37.7019 25.7331 38.2693 25.1656C38.8368 24.5981 39.1556 23.8285 39.1556 23.0259Z" fill="black"/>
</svg>
