<svg width="40" height="40" viewBox="0 0 40 40" fill="none" xmlns="http://www.w3.org/2000/svg">
<rect width="40" height="40" rx="20" fill="#E1FF51"/>
<g clip-path="url(#clip0_26_247)">
<path fill-rule="evenodd" clip-rule="evenodd" d="M16.1207 28.933C16.624 29.1733 17.1746 29.2982 17.7323 29.2984H25.7394C26.6322 29.2984 27.4957 28.9794 28.1741 28.3988C28.8524 27.8182 29.301 27.0143 29.4389 26.1321L30.3765 20.1366C30.4435 19.7091 30.4172 19.2723 30.2993 18.856C30.1814 18.4397 29.9747 18.0539 29.6934 17.7251C29.4122 17.3963 29.0631 17.1323 28.6701 16.9514C28.2771 16.7704 27.8495 16.6767 27.4169 16.6767H22.5012V13.148C22.5019 12.6089 22.3236 12.0848 21.9943 11.658C21.665 11.2312 21.2033 10.9258 20.6816 10.7897C20.16 10.6537 19.6079 10.6946 19.1121 10.9062C18.6163 11.1178 18.2047 11.488 17.942 11.9588L14.8311 17.5155C14.6434 17.8509 14.5449 18.229 14.545 18.6134V26.7642C14.545 27.1885 14.6651 27.6042 14.8914 27.9631C15.1178 28.322 15.4412 28.6094 15.8241 28.7922L16.1207 28.933ZM11.0792 17.7896C10.8832 17.7894 10.689 17.8278 10.5079 17.9027C10.3267 17.9776 10.1621 18.0874 10.0234 18.226C9.88472 18.3645 9.7747 18.529 9.69964 18.7101C9.62457 18.8912 9.58594 19.0853 9.58594 19.2814V26.9379C9.58594 27.334 9.74326 27.7138 10.0233 27.9939C10.3034 28.2739 10.6832 28.4312 11.0792 28.4312H11.8221C12.0207 28.4312 12.2112 28.3523 12.3516 28.2119C12.4921 28.0714 12.571 27.881 12.571 27.6823V18.537C12.571 18.3384 12.4921 18.1479 12.3516 18.0074C12.2112 17.867 12.0207 17.7881 11.8221 17.7881L11.0792 17.7896Z" fill="black"/>
</g>
<defs>
<clipPath id="clip0_26_247">
<rect width="20.9688" height="20.9688" fill="white" transform="translate(9.51562 9.51562)"/>
</clipPath>
</defs>
</svg>
