<svg width="40" height="40" viewBox="0 0 40 40" fill="none" xmlns="http://www.w3.org/2000/svg">
<rect width="40" height="40" rx="20" fill="#E1FF51"/>
<path d="M13.5 28.375C13.0187 28.375 12.6069 28.2038 12.2645 27.8614C11.9221 27.519 11.7506 27.1068 11.75 26.625V17C11.75 16.5188 11.9215 16.1069 12.2645 15.7645C12.6075 15.4221 13.0193 15.2506 13.5 15.25H17V13.5C17 13.0187 17.1715 12.6069 17.5145 12.2645C17.8575 11.9221 18.2693 11.7506 18.75 11.75H22.25C22.7312 11.75 23.1434 11.9215 23.4864 12.2645C23.8294 12.6075 24.0006 13.0193 24 13.5V15.25H27.5C27.9813 15.25 28.3934 15.4215 28.7364 15.7645C29.0794 16.1075 29.2506 16.5193 29.25 17V26.625C29.25 27.1062 29.0788 27.5184 28.7364 27.8614C28.394 28.2044 27.9818 28.3756 27.5 28.375H13.5ZM18.75 15.25H22.25V13.5H18.75V15.25Z" fill="black"/>
</svg>
