<svg width="40" height="40" viewBox="0 0 40 40" fill="none" xmlns="http://www.w3.org/2000/svg">
<rect width="40" height="40" rx="20" fill="#E1FF51"/>
<path d="M28.9989 27C29.2538 27.0003 29.4989 27.0979 29.6843 27.2728C29.8696 27.4478 29.9811 27.687 29.9961 27.9414C30.011 28.1958 29.9282 28.4464 29.7646 28.6418C29.601 28.8373 29.369 28.9629 29.1159 28.993L28.9989 29H10.9989C10.744 28.9997 10.4989 28.9021 10.3135 28.7272C10.1282 28.5522 10.0167 28.313 10.0017 28.0586C9.98678 27.8042 10.0696 27.5536 10.2332 27.3582C10.3967 27.1627 10.6288 27.0371 10.8819 27.007L10.9989 27H28.9989ZM26.9989 12C27.5035 11.9998 27.9895 12.1904 28.3594 12.5335C28.7294 12.8766 28.956 13.3468 28.9939 13.85L28.9989 14V24C28.9991 24.5046 28.8085 24.9906 28.4654 25.3605C28.1223 25.7305 27.652 25.9572 27.1489 25.995L26.9989 26H12.9989C12.4943 26.0002 12.0083 25.8096 11.6383 25.4665C11.2684 25.1234 11.0417 24.6532 11.0039 24.15L10.9989 24V14C10.9987 13.4954 11.1893 13.0094 11.5324 12.6395C11.8755 12.2695 12.3457 12.0428 12.8489 12.005L12.9989 12H26.9989Z" fill="black"/>
</svg>
