<svg width="40" height="40" viewBox="0 0 40 40" fill="none" xmlns="http://www.w3.org/2000/svg">
<rect width="40" height="40" rx="20" fill="#E1FF51"/>
<path fill-rule="evenodd" clip-rule="evenodd" d="M21.984 10.542C22.071 10.711 22.093 10.928 22.136 11.362C22.218 12.182 22.259 12.592 22.431 12.818C22.5382 12.9583 22.6806 13.0678 22.8437 13.1352C23.0069 13.2027 23.185 13.2257 23.36 13.202C23.64 13.165 23.96 12.904 24.598 12.382C24.935 12.105 25.104 11.967 25.285 11.909C25.5155 11.8353 25.7649 11.8478 25.987 11.944C26.162 12.02 26.317 12.174 26.624 12.482L27.518 13.376C27.826 13.684 27.98 13.838 28.056 14.013C28.1522 14.2351 28.1647 14.4845 28.091 14.715C28.033 14.896 27.895 15.065 27.619 15.402C27.096 16.041 26.835 16.36 26.797 16.641C26.7736 16.8159 26.7969 16.9939 26.8645 17.1569C26.9321 17.3198 27.0417 17.462 27.182 17.569C27.407 17.741 27.818 17.782 28.639 17.864C29.072 17.907 29.289 17.929 29.459 18.016C29.6735 18.1272 29.8404 18.3123 29.929 18.537C30 18.714 30 18.932 30 19.368V20.632C30 21.068 30 21.286 29.93 21.462C29.8411 21.6874 29.6734 21.8729 29.458 21.984C29.289 22.071 29.072 22.093 28.638 22.136C27.818 22.218 27.408 22.259 27.182 22.431C27.0417 22.5382 26.9322 22.6806 26.8648 22.8437C26.7973 23.0069 26.7743 23.185 26.798 23.36C26.836 23.64 27.097 23.96 27.619 24.598C27.895 24.935 28.033 25.103 28.091 25.285C28.1647 25.5155 28.1522 25.7649 28.056 25.987C27.98 26.162 27.826 26.316 27.518 26.624L26.624 27.517C26.316 27.826 26.162 27.98 25.987 28.055C25.7649 28.1512 25.5155 28.1637 25.285 28.09C25.104 28.032 24.935 27.894 24.598 27.618C23.959 27.096 23.64 26.835 23.36 26.798C23.185 26.7743 23.0069 26.7973 22.8437 26.8648C22.6806 26.9322 22.5382 27.0417 22.431 27.182C22.259 27.407 22.218 27.817 22.136 28.638C22.093 29.072 22.071 29.289 21.984 29.458C21.8732 29.6732 21.6881 29.8409 21.463 29.93C21.286 30 21.068 30 20.632 30H19.368C18.932 30 18.714 30 18.538 29.93C18.3126 29.8411 18.1271 29.6734 18.016 29.458C17.929 29.289 17.907 29.072 17.864 28.638C17.782 27.818 17.741 27.408 17.569 27.182C17.4619 27.0418 17.3197 26.9325 17.1567 26.8651C16.9937 26.7976 16.8158 26.7745 16.641 26.798C16.36 26.835 16.041 27.096 15.402 27.618C15.065 27.895 14.896 28.033 14.715 28.091C14.4845 28.1647 14.2351 28.1522 14.013 28.056C13.838 27.98 13.683 27.826 13.376 27.518L12.482 26.624C12.174 26.316 12.02 26.162 11.944 25.987C11.8478 25.7649 11.8353 25.5155 11.909 25.285C11.967 25.104 12.105 24.935 12.381 24.598C12.904 23.959 13.165 23.64 13.202 23.359C13.2255 23.1842 13.2024 23.0063 13.1349 22.8433C13.0675 22.6803 12.9582 22.5381 12.818 22.431C12.593 22.259 12.182 22.218 11.361 22.136C10.928 22.093 10.711 22.071 10.541 21.984C10.3265 21.8728 10.1596 21.6877 10.071 21.463C10 21.286 10 21.068 10 20.632V19.368C10 18.932 10 18.714 10.07 18.538C10.1589 18.3126 10.3266 18.1271 10.542 18.016C10.711 17.929 10.928 17.907 11.362 17.864C12.182 17.782 12.593 17.741 12.818 17.569C12.9583 17.462 13.0679 17.3198 13.1355 17.1569C13.2031 16.9939 13.2264 16.8159 13.203 16.641C13.165 16.36 12.903 16.041 12.381 15.401C12.105 15.064 11.967 14.896 11.909 14.714C11.8353 14.4835 11.8478 14.2341 11.944 14.012C12.02 13.838 12.174 13.683 12.482 13.375L13.376 12.482C13.684 12.174 13.838 12.019 14.013 11.944C14.2351 11.8478 14.4845 11.8353 14.715 11.909C14.896 11.967 15.065 12.105 15.402 12.381C16.041 12.903 16.36 13.164 16.64 13.202C16.8152 13.2258 16.9936 13.2027 17.157 13.135C17.3203 13.0674 17.4629 12.9577 17.57 12.817C17.74 12.592 17.782 12.182 17.864 11.361C17.907 10.928 17.929 10.711 18.016 10.541C18.127 10.3262 18.3121 10.1588 18.537 10.07C18.714 10 18.932 10 19.368 10H20.632C21.068 10 21.286 10 21.462 10.07C21.6874 10.1589 21.8729 10.3266 21.984 10.542ZM20 24C21.0609 24 22.0783 23.5786 22.8284 22.8284C23.5786 22.0783 24 21.0609 24 20C24 18.9391 23.5786 17.9217 22.8284 17.1716C22.0783 16.4214 21.0609 16 20 16C18.9391 16 17.9217 16.4214 17.1716 17.1716C16.4214 17.9217 16 18.9391 16 20C16 21.0609 16.4214 22.0783 17.1716 22.8284C17.9217 23.5786 18.9391 24 20 24Z" fill="black"/>
</svg>
