<svg width="40" height="40" viewBox="0 0 40 40" fill="none" xmlns="http://www.w3.org/2000/svg">
<rect width="40" height="40" rx="20" fill="#E1FF51"/>
<path fill-rule="evenodd" clip-rule="evenodd" d="M13 14.25C12.2707 14.25 11.5712 14.5397 11.0555 15.0555C10.5397 15.5712 10.25 16.2707 10.25 17V26C10.25 26.7293 10.5397 27.4288 11.0555 27.9445C11.5712 28.4603 12.2707 28.75 13 28.75H27C27.7293 28.75 28.4288 28.4603 28.9445 27.9445C29.4603 27.4288 29.75 26.7293 29.75 26V17C29.75 16.2707 29.4603 15.5712 28.9445 15.0555C28.4288 14.5397 27.7293 14.25 27 14.25H13ZM24.5 20.25C24.1685 20.25 23.8505 20.3817 23.6161 20.6161C23.3817 20.8505 23.25 21.1685 23.25 21.5C23.25 21.8315 23.3817 22.1495 23.6161 22.3839C23.8505 22.6183 24.1685 22.75 24.5 22.75C24.8315 22.75 25.1495 22.6183 25.3839 22.3839C25.6183 22.1495 25.75 21.8315 25.75 21.5C25.75 21.1685 25.6183 20.8505 25.3839 20.6161C25.1495 20.3817 24.8315 20.25 24.5 20.25Z" fill="black"/>
<path d="M24.485 11.0674C24.7811 10.9885 25.0913 10.9787 25.3918 11.0388C25.6923 11.0988 25.9749 11.227 26.218 11.4137C26.461 11.6003 26.6579 11.8402 26.7935 12.115C26.9291 12.3898 26.9998 12.692 27 12.9984H17L24.485 11.0674Z" fill="black"/>
</svg>
