<svg width="40" height="40" viewBox="0 0 40 40" fill="none" xmlns="http://www.w3.org/2000/svg">
<rect width="40" height="40" rx="20" fill="#E1FF51"/>
<path d="M11 21C14.6 13 25.4 13 29 21" stroke="black" stroke-width="1.5" stroke-linecap="round" stroke-linejoin="round"/>
<path d="M20 25C19.606 25 19.2159 24.9224 18.8519 24.7716C18.488 24.6209 18.1573 24.3999 17.8787 24.1213C17.6001 23.8427 17.3791 23.512 17.2284 23.1481C17.0776 22.7841 17 22.394 17 22C17 21.606 17.0776 21.2159 17.2284 20.8519C17.3791 20.488 17.6001 20.1573 17.8787 19.8787C18.1573 19.6001 18.488 19.3791 18.8519 19.2284C19.2159 19.0776 19.606 19 20 19C20.7956 19 21.5587 19.3161 22.1213 19.8787C22.6839 20.4413 23 21.2044 23 22C23 22.7956 22.6839 23.5587 22.1213 24.1213C21.5587 24.6839 20.7956 25 20 25Z" fill="black" stroke="black" stroke-width="1.5" stroke-linecap="round" stroke-linejoin="round"/>
</svg>
