<svg width="40" height="40" viewBox="0 0 40 40" fill="none" xmlns="http://www.w3.org/2000/svg">
<rect width="40" height="40" rx="20" fill="#E1FF51"/>
<path fill-rule="evenodd" clip-rule="evenodd" d="M12.5367 13.7764C13.4743 12.8391 14.7458 12.3125 16.0717 12.3125C17.3975 12.3125 18.669 12.8391 19.6067 13.7764C19.79 13.9591 20.026 14.1864 20.3147 14.4584C20.6027 14.1864 20.8383 13.9591 21.0217 13.7764C21.9554 12.8471 23.2181 12.3238 24.5355 12.3203C25.8528 12.3168 27.1184 12.8333 28.0571 13.7576C28.9957 14.6819 29.5317 15.9393 29.5485 17.2566C29.5652 18.5738 29.0615 19.8445 28.1467 20.7924L21.0207 27.9184C20.8331 28.1059 20.5788 28.2112 20.3137 28.2112C20.0485 28.2112 19.7942 28.1059 19.6067 27.9184L12.4807 20.7934C11.5667 19.8508 11.0602 18.5866 11.0705 17.2737C11.0808 15.9608 11.608 14.7046 12.5367 13.7764Z" fill="black"/>
</svg>
